# xmcd
#
# Track frame offsets: 
#        150
#        16091
#        25794
#        39960
#        65138
#        88216
#        103723
#        121439
#        146258
#        153520
#        168141
#        197181
#
# Disc length: 2781 seconds
#
# Revision: 0
# Processed by: cddbd v1.5.2PL0 Copyright (c) Steve Scherf et al.
# Submitted via: ExactAudioCopy v1.0b3
#
DISCID=980adb0c
DTITLE=Kalle Sändare - Boxen e' klar - CD 9 - Sändar-resan
DYEAR=2014
DGENRE=Comedy
TTITLE0=Gran canari
TTITLE1=Finns det telefon på grisfesten
TTITLE2=En golvlampa
TTITLE3=Kursresa till Cypern
TTITLE4=Båt i stugor
TTITLE5=Nattportier
TTITLE6=Sällskapsresan
TTITLE7=Fem råttor och möss
TTITLE8=Bodensjön
TTITLE9=Gideon
TTITLE10=11. Vad menar ni med Arlanda?
TTITLE11=Sällskapsresans automatiska telefonsvarare
EXTD=
EXTT0=
EXTT1=
EXTT2=
EXTT3=
EXTT4=
EXTT5=
EXTT6=
EXTT7=
EXTT8=
EXTT9=
EXTT10=
EXTT11=
PLAYORDER=
